<?xml version="1.0" standalone="no"?>
<!DOCTYPE svg PUBLIC "-//W3C//DTD SVG 20010904//EN"
 "http://www.w3.org/TR/2001/REC-SVG-20010904/DTD/svg10.dtd">
<svg version="1.0" xmlns="http://www.w3.org/2000/svg"
 width="146.000000pt" height="146.000000pt" viewBox="0 0 146.000000 146.000000"
 preserveAspectRatio="xMidYMid meet">
<metadata>
Created by potrace 1.14, written by Peter Selinger 2001-2017
</metadata>
<g transform="translate(0.000000,146.000000) scale(0.100000,-0.100000)"
fill="#000000" stroke="none">
<path d="M567 1186 c-9 -12 -19 -39 -22 -59 -4 -21 -12 -34 -17 -31 -7 4 -9
-10 -7 -39 4 -43 3 -45 -13 -30 -17 15 -18 14 -17 -8 0 -13 5 -33 10 -44 9
-19 9 -18 5 3 -5 25 6 29 24 7 15 -18 34 -20 27 -2 -17 47 -18 57 -3 51 12 -5
16 6 18 58 3 61 4 62 16 33 7 -16 32 -58 54 -93 23 -35 47 -87 55 -115 l13
-52 -5 49 c-3 32 -21 79 -55 141 -30 55 -50 105 -50 124 0 37 -12 40 -33 7z"/>
<path d="M741 1145 c193 -33 274 -70 361 -164 27 -30 62 -79 78 -110 16 -31
29 -52 30 -47 0 4 -14 35 -32 67 -39 74 -147 177 -221 213 -66 31 -180 56
-245 55 -43 -1 -41 -2 29 -14z"/>
<path d="M286 1125 c-3 -9 -6 -43 -6 -76 0 -48 -3 -57 -15 -53 -8 4 -15 3 -15
0 0 -12 32 -70 49 -90 15 -18 15 -19 -11 -12 -16 3 -28 4 -28 1 0 -3 18 -22
41 -42 40 -37 40 -55 0 -33 -12 6 -21 7 -21 2 0 -13 77 -82 93 -83 6 0 -1 -6
-17 -13 l-29 -13 39 -27 c21 -14 47 -26 56 -26 23 0 23 -20 1 -20 -16 -1 -16
-2 1 -15 11 -8 25 -15 30 -15 6 0 4 5 -4 10 -13 9 -13 12 4 25 17 13 15 14
-22 24 -22 6 -45 18 -52 26 -12 15 -2 20 60 27 20 3 15 7 -27 21 -28 10 -57
25 -63 33 -11 12 -6 14 31 14 48 1 46 4 -23 44 l-33 20 29 5 28 6 -41 33 c-48
38 -52 51 -14 44 l27 -5 -27 32 c-18 22 -27 44 -27 69 l0 36 34 -40 c19 -21
81 -75 139 -119 58 -44 111 -90 118 -102 7 -13 14 -21 16 -19 10 10 -32 57
-90 102 -100 78 -188 166 -207 207 -13 29 -19 34 -24 22z"/>
<path d="M980 1054 c19 -16 60 -53 91 -84 121 -121 169 -311 119 -471 -10 -35
-18 -65 -16 -66 2 -2 13 19 25 46 28 67 29 202 1 292 -34 110 -114 217 -210
280 -42 28 -43 28 -10 3z"/>
<path d="M681 784 c-18 -14 -36 -36 -43 -48 -6 -11 7 -2 29 22 45 48 58 51 89
21 l21 -20 -27 -27 c-14 -15 -39 -59 -54 -99 -33 -88 -78 -133 -132 -133 l-35
0 3 -77 3 -78 285 0 285 0 3 169 c2 116 -1 173 -9 182 -9 11 -49 14 -180 14
-143 0 -168 2 -163 14 3 8 17 19 31 23 l25 9 -39 27 c-48 33 -54 33 -92 1z
m374 -123 c-75 -72 -211 -181 -227 -181 -24 0 -53 15 -99 52 l-36 29 21 59 21
60 170 0 c167 0 169 0 150 -19z m35 -146 c0 -69 -2 -125 -5 -125 -2 0 -31 32
-65 72 l-60 72 57 53 c32 28 61 52 66 53 4 0 7 -56 7 -125z m-429 -2 c-6 -10
-33 -43 -60 -73 l-50 -55 -1 53 0 52 34 0 c19 0 44 9 57 20 30 24 32 24 20 3z
m98 -40 c49 -33 95 -30 139 8 l36 32 39 -44 c21 -24 47 -56 58 -71 l20 -28
-231 0 c-182 0 -230 3 -224 13 24 40 108 126 117 120 7 -4 27 -17 46 -30z"/>
<path d="M425 565 c-16 -8 -48 -15 -70 -15 -22 -1 -48 -5 -58 -9 -15 -5 -11
-10 23 -30 l41 -23 -31 -35 c-17 -19 -29 -37 -27 -40 3 -2 21 0 40 5 l35 10 5
-40 c7 -50 14 -57 31 -32 46 63 43 61 61 36 21 -29 35 -20 34 21 l-1 32 -7
-30 -7 -30 -13 25 c-20 37 -20 37 -52 0 l-28 -35 -1 39 c0 36 -2 38 -26 33
l-25 -4 20 21 c28 30 27 35 -11 51 -31 13 -31 14 -8 15 14 0 48 11 75 24 52
26 52 35 0 11z"/>
</g>
</svg>
