<!-- icon666.com - MILLIONS vector ICONS FREE --><svg viewBox="0 0 24 24" xmlns="http://www.w3.org/2000/svg"><g id="picture"><g><path d="m19 2h-14c-1.6542969 0-3 1.3457031-3 3v14c0 1.6542969 1.3457031 3 3 3h14c1.6542969 0 3-1.3457031 3-3v-14c0-1.6542969-1.3457031-3-3-3z" fill="#2196f3" style="fill: rgb(207, 206, 170);"></path><path d="m17.2304688 13.7666016c-.3330078.1679688-.7348633.2568359-1.1630859.2568359-.8891602 0-1.7543945-.3662109-2.2597656-.9560547l-2.0976563-2.4375c-.7006837-.8183594-1.6884766-1.2871094-2.709961-1.2871094s-2.0092773.46875-2.7089844 1.2861328l-4.2910156 5.0009766v3.3701172c0 1.6542969 1.3457031 3 3 3h14c1.6542969 0 3-1.3457031 3-3v-7.6181641z" fill="#4caf50" style="fill: rgb(180, 170, 106);"></path><circle cx="16" cy="8" fill="#f8f3e9" r="3" style="fill: rgb(245, 241, 229);"></circle></g></g></svg>