<?xml version="1.0" standalone="no"?>
<!DOCTYPE svg PUBLIC "-//W3C//DTD SVG 20010904//EN"
 "http://www.w3.org/TR/2001/REC-SVG-20010904/DTD/svg10.dtd">
<svg version="1.0" xmlns="http://www.w3.org/2000/svg"
 width="549.000000pt" height="549.000000pt" viewBox="0 0 549.000000 549.000000"
 preserveAspectRatio="xMidYMid meet">
<metadata>
Created by potrace 1.14, written by Peter Selinger 2001-2017
</metadata>
<g transform="translate(0.000000,549.000000) scale(0.100000,-0.100000)"
fill="#000000" stroke="none">
<path d="M4135 5076 c-32 -70 -45 -100 -96 -228 -69 -172 -253 -538 -340 -675
-180 -286 -424 -545 -834 -888 -66 -55 -121 -103 -123 -107 -2 -3 -19 4 -39
18 -20 13 -42 24 -50 24 -10 0 -12 6 -8 20 16 51 -20 100 -74 100 -17 0 -16 4
5 47 39 76 28 167 -20 179 -21 5 -24 9 -16 24 13 25 13 106 -1 131 -5 11 -21
24 -33 29 -20 7 -24 17 -28 64 -5 55 -35 106 -62 106 -7 0 -11 26 -11 70 0 58
-4 73 -22 91 -12 12 -35 22 -52 23 -17 1 -31 1 -31 1 0 0 5 16 10 35 24 79
-20 190 -74 190 -21 0 -24 6 -29 58 -4 32 -13 74 -21 94 -20 46 -70 88 -105
88 -24 0 -31 7 -45 45 -30 78 -84 108 -147 81 -12 -5 -18 3 -27 33 -12 37 -61
91 -84 91 -20 0 -65 -33 -84 -61 l-19 -28 -17 32 c-26 51 -90 107 -130 113
-33 6 -36 4 -51 -33 -14 -36 -14 -46 4 -134 58 -276 74 -447 66 -684 -8 -206
-26 -339 -72 -539 -45 -199 -55 -263 -55 -374 0 -110 20 -215 59 -312 16 -38
28 -70 26 -70 -1 0 -45 20 -97 45 -53 24 -131 53 -174 65 -252 66 -491 -43
-513 -234 -6 -50 -9 -56 -59 -96 -62 -48 -112 -121 -112 -162 0 -26 3 -28 38
-28 20 0 64 5 97 10 203 34 226 32 283 -22 18 -18 83 -107 144 -198 388 -579
632 -793 1014 -890 32 -8 43 -16 48 -35 4 -15 21 -32 41 -43 20 -10 43 -33 53
-52 20 -40 58 -51 93 -26 16 10 28 12 46 5 13 -5 37 -9 53 -9 16 0 42 -8 59
-17 29 -17 31 -17 60 5 17 12 36 22 42 22 7 0 27 5 44 11 18 7 47 9 69 5 l37
-7 -36 -41 c-114 -125 -73 -248 83 -248 29 0 32 -3 32 -30 0 -77 59 -118 177
-122 l71 -3 6 -46 c8 -55 37 -96 82 -115 39 -16 107 -18 134 -4 15 8 20 5 29
-20 45 -130 215 -194 336 -127 30 17 52 24 59 18 24 -20 103 -23 160 -7 59 17
136 79 136 109 0 12 11 16 54 16 120 0 236 92 236 189 0 23 6 32 29 42 40 16
79 76 87 132 8 55 -21 124 -64 159 -26 21 -26 22 -8 33 63 36 85 104 50 154
-17 24 -103 72 -129 72 -13 0 -15 6 -10 30 5 21 0 44 -15 75 -24 50 -66 78
-136 90 l-42 6 5 40 c5 37 3 43 -40 84 -36 34 -56 45 -92 51 -93 14 -144 2
-383 -90 -101 -39 -200 -58 -251 -47 -27 5 -36 15 -53 53 l-20 47 26 31 c14
18 26 36 26 41 0 5 15 0 33 -11 74 -46 174 -9 192 70 5 25 8 26 71 22 63 -4
65 -4 99 33 30 31 42 62 36 97 0 4 19 5 43 2 24 -4 59 -1 79 5 43 15 97 73 97
105 0 20 6 24 44 28 92 11 153 90 143 184 -4 40 -2 56 10 65 23 20 53 86 53
119 0 25 9 36 50 66 61 44 70 59 70 118 0 36 4 48 22 57 12 6 43 32 70 57 52
49 73 99 63 155 -5 28 -2 35 29 55 74 50 121 138 114 214 -4 35 -1 51 10 60 9
7 28 33 44 57 29 47 38 114 18 150 -7 13 -4 29 10 57 23 43 27 133 8 152 -9 9
-3 21 29 55 69 70 90 149 58 211 -15 28 -14 31 9 55 35 38 56 86 63 141 7 63
-2 98 -31 111 l-23 11 33 50 c57 85 73 194 34 236 -25 27 -26 27 -85 1 -55
-24 -56 -37 0 -14 52 22 65 14 65 -38 0 -31 -11 -66 -35 -113 -101 -200 -302
-385 -649 -598 -136 -83 -168 -111 -58 -50 201 112 369 234 512 370 120 115
179 148 194 108 23 -60 -29 -172 -122 -264 -82 -80 -193 -155 -420 -285 -95
-54 -170 -100 -168 -103 7 -6 317 171 437 249 52 34 115 80 142 101 64 54 84
45 77 -32 -6 -71 -85 -155 -251 -266 -98 -66 -304 -169 -397 -199 -29 -9 -51
-19 -49 -22 10 -9 166 53 297 119 74 37 168 92 209 123 71 54 74 55 93 38 15
-14 19 -26 15 -55 -12 -86 -90 -164 -240 -240 -86 -43 -355 -135 -481 -164
-43 -10 -74 -20 -68 -22 14 -4 153 32 305 79 167 52 293 107 370 162 34 24 68
42 75 40 35 -13 -14 -129 -78 -187 -53 -48 -175 -106 -295 -141 -97 -28 -411
-94 -460 -96 -21 -1 -24 -3 -9 -6 11 -2 67 3 123 11 220 33 470 101 558 152
54 31 59 30 72 -8 10 -28 8 -39 -14 -85 -57 -115 -184 -174 -485 -225 -135
-22 -405 -36 -377 -18 9 6 17 15 17 21 0 5 -10 1 -22 -11 -17 -16 -36 -20 -92
-21 l-71 -2 75 -9 c184 -21 560 22 752 88 39 13 75 24 80 24 4 0 8 -23 8 -52
0 -48 -3 -54 -52 -104 -68 -67 -130 -87 -273 -87 -98 0 -99 0 -40 -9 37 -6 84
-6 125 0 71 10 80 6 80 -40 0 -33 -61 -105 -95 -114 -12 -3 -91 8 -176 25 -85
16 -212 37 -284 47 -123 17 -184 34 -120 34 27 0 95 32 95 45 0 3 -18 -4 -39
-14 -21 -11 -68 -24 -102 -29 l-64 -8 100 -18 c55 -9 165 -29 245 -43 80 -14
183 -35 230 -47 l85 -21 3 -44 c4 -51 -11 -85 -49 -112 -27 -19 -27 -19 -170
22 -189 53 -387 101 -400 97 -6 -2 36 -16 93 -31 239 -63 423 -118 445 -132
49 -32 15 -146 -50 -168 -48 -16 -111 1 -195 52 -80 49 -282 154 -282 147 0
-2 37 -25 83 -51 45 -26 111 -65 147 -85 133 -78 164 -152 80 -195 -63 -32
-155 -12 -220 49 -19 18 -62 54 -95 81 -49 38 -42 30 32 -41 100 -98 113 -116
113 -167 0 -47 -25 -67 -86 -67 -63 0 -74 8 -221 158 -117 118 -120 122 -89
122 17 0 37 4 45 9 8 5 -3 7 -31 4 -26 -3 -55 0 -69 7 -13 7 8 -21 47 -61 173
-181 191 -204 198 -254 7 -40 4 -50 -14 -70 -31 -33 -60 -37 -120 -17 -51 18
-55 22 -93 93 -46 86 -129 209 -159 235 -12 11 -3 -6 19 -36 54 -74 153 -255
153 -281 0 -11 -14 -34 -30 -51 -28 -28 -36 -30 -80 -26 -82 8 -119 41 -180
158 -28 56 -54 99 -56 97 -3 -3 20 -55 50 -116 31 -61 56 -119 56 -130 0 -24
-42 -55 -92 -69 -29 -8 -42 -7 -65 8 -59 35 -106 115 -128 218 -4 18 -9 31
-12 28 -3 -3 7 -44 21 -92 22 -69 36 -96 70 -132 37 -39 49 -45 93 -49 55 -6
93 9 131 50 23 24 25 25 60 10 20 -8 55 -15 78 -15 40 -1 42 -3 54 -42 31
-107 121 -225 203 -267 50 -26 142 -38 135 -18 -3 8 -26 22 -53 32 -75 28
-151 83 -184 136 -37 57 -38 66 -10 50 39 -20 129 -4 275 49 77 28 178 58 223
67 78 16 85 16 122 0 54 -25 72 -48 73 -97 l1 -43 -55 -7 c-67 -9 -125 -26
-94 -27 11 -1 47 4 80 10 45 8 76 8 129 -1 59 -11 76 -18 108 -50 26 -27 37
-46 37 -68 0 -38 -16 -44 -94 -38 l-61 5 61 -12 c34 -7 68 -17 75 -23 8 -7 33
-15 56 -19 49 -8 118 -54 128 -85 9 -27 -18 -68 -53 -81 -41 -16 -176 -4 -272
24 -47 14 -86 24 -88 22 -3 -3 42 -18 208 -70 101 -31 157 -67 188 -120 40
-69 15 -152 -54 -181 -45 -19 -68 -12 -194 53 -58 30 -94 46 -80 34 14 -11 69
-43 123 -71 89 -47 97 -54 97 -80 0 -16 -5 -41 -12 -55 -17 -38 -97 -85 -157
-92 l-51 -6 -156 159 -156 159 113 -130 c62 -71 123 -142 137 -156 l24 -27
-27 -41 c-38 -57 -81 -81 -141 -80 -104 3 -101 -1 -163 149 -56 132 -88 200
-95 200 -2 0 25 -71 60 -157 35 -87 64 -162 64 -168 0 -14 -104 -55 -138 -55
-38 0 -132 49 -155 81 -27 38 -36 91 -38 219 0 63 -4 135 -8 160 -6 33 -9 5
-10 -102 0 -82 0 -151 2 -155 4 -11 -66 -31 -111 -32 -56 -1 -78 11 -102 59
-27 52 -26 64 15 221 19 74 34 143 34 154 0 11 -11 -18 -23 -65 -13 -47 -33
-112 -45 -145 l-22 -60 -77 6 c-87 6 -119 19 -132 55 -13 33 -3 100 22 143 10
18 17 35 15 38 -6 6 -63 -50 -69 -67 -3 -11 -19 -15 -55 -15 -58 0 -93 23 -93
62 0 37 36 99 72 124 18 13 36 27 39 32 4 6 54 7 124 2 l117 -7 -34 -36 -33
-36 45 36 45 35 104 -8 c118 -10 154 -19 201 -54 46 -34 60 -31 25 5 -50 52
-114 66 -382 80 -137 7 -197 15 -242 30 -33 11 -72 20 -86 20 -25 0 -25 1 -10
24 22 33 10 71 -30 95 l-33 19 -11 -24 c-13 -28 -29 -31 -38 -6 -3 9 -15 27
-25 39 -16 17 -18 25 -9 41 17 33 13 70 -9 82 -24 13 -62 -4 -100 -45 -14 -15
-40 -33 -59 -41 -26 -11 -32 -18 -27 -34 21 -68 23 -63 -20 -56 -59 11 -263
63 -314 81 -161 57 -443 259 -572 409 -37 45 -105 135 -150 201 -45 66 -114
163 -153 216 -38 53 -90 124 -114 157 -74 104 -171 134 -311 97 -30 -8 -59
-15 -65 -14 -21 0 62 37 100 44 51 9 75 22 75 40 0 17 -21 20 -35 6 -6 -5 -35
-16 -65 -25 -31 -8 -81 -33 -112 -54 -44 -31 -54 -36 -51 -21 8 30 91 117 138
144 41 24 42 27 48 85 13 146 124 231 307 233 149 2 256 -41 510 -208 208
-136 272 -174 337 -200 l58 -24 -30 -11 c-64 -25 -71 -29 -54 -29 31 -2 126
32 204 72 117 60 254 199 370 376 115 175 173 235 452 468 402 336 660 617
842 917 91 149 202 386 361 771 34 83 66 154 71 160 6 6 17 1 31 -13 48 -47
30 -236 -42 -451 -51 -154 -177 -435 -226 -507 l-39 -57 -6 29 c-6 27 -7 26
-8 -10 -1 -43 -40 -97 -205 -281 -49 -55 -68 -80 -42 -55 41 39 171 183 232
258 45 55 94 47 94 -15 0 -72 -68 -152 -295 -343 -122 -103 -155 -133 -110
-103 47 33 243 202 357 309 267 252 579 598 761 845 64 87 110 116 133 84 34
-46 4 -177 -67 -297 -98 -166 -284 -389 -437 -522 -84 -73 -274 -216 -287
-216 -4 0 1 10 9 22 28 39 16 118 -17 118 -5 0 -1 -7 7 -16 40 -40 -1 -126
-94 -197 -22 -17 -38 -33 -35 -35 4 -4 68 42 297 211 130 97 295 255 402 385
38 45 88 96 112 113 25 17 42 33 40 37 -2 4 11 32 30 62 51 81 94 200 94 260
0 61 -11 85 -48 104 -44 23 -79 -3 -174 -127 -33 -43 -62 -76 -64 -74 -3 3 5
29 16 58 15 36 24 86 27 151 5 86 3 101 -17 142 -18 38 -27 46 -49 46 -47 0
-71 -29 -135 -164 -34 -72 -91 -178 -125 -235 -65 -107 -203 -303 -209 -297
-2 2 14 39 36 82 75 151 130 353 139 510 7 125 -4 172 -44 204 -46 36 -61 27
-98 -54z m456 -98 c8 -14 10 -53 6 -112 -5 -96 -37 -204 -81 -280 -13 -23 -40
-73 -60 -112 -39 -77 -152 -209 -356 -418 l-116 -119 4 60 c4 61 -3 77 -40 84
-15 3 -11 14 25 64 23 34 75 98 114 143 149 168 253 328 365 559 38 78 74 144
81 146 26 11 47 6 58 -15z m-3022 -176 c90 -94 122 -199 141 -453 14 -187 21
-209 14 -44 -3 71 -12 168 -21 215 -27 143 -17 224 31 255 34 23 62 6 89 -53
19 -41 22 -70 25 -217 3 -147 0 -192 -23 -335 -14 -91 -29 -174 -32 -185 -3
-14 -2 -17 5 -10 17 17 52 199 62 327 6 67 7 169 4 227 -6 104 -5 106 20 134
15 15 31 27 37 27 22 0 68 -59 79 -101 23 -83 4 -285 -46 -481 -29 -115 -30
-133 -3 -58 29 81 56 219 68 349 6 62 16 120 22 127 6 8 25 14 41 14 46 0 69
-63 71 -193 1 -97 -1 -109 -47 -247 -63 -189 -63 -185 -22 -109 33 63 86 238
86 285 0 45 73 34 91 -13 26 -69 -27 -246 -126 -423 -20 -36 -30 -58 -21 -50
9 9 46 74 82 145 36 71 71 133 77 137 20 13 64 9 77 -7 35 -42 -3 -152 -102
-293 -27 -40 -49 -75 -47 -77 3 -2 34 38 70 88 69 98 105 125 138 108 27 -15
43 -69 32 -106 -8 -30 -64 -120 -81 -130 -5 -3 -23 -24 -41 -48 l-33 -42 48
45 c26 25 55 57 63 71 16 27 74 52 99 42 9 -3 14 -20 14 -48 0 -51 -34 -100
-169 -239 -55 -58 -70 -76 -41 -53 25 19 62 53 82 75 38 41 113 82 148 82 31
0 42 -32 29 -85 -15 -61 -88 -140 -179 -195 -38 -23 -70 -44 -70 -46 0 -5 58
26 120 65 59 36 94 44 136 31 27 -9 34 -17 34 -36 0 -37 -16 -61 -63 -96 -23
-17 -33 -28 -22 -24 11 4 44 12 72 18 59 12 83 2 83 -36 0 -33 -106 -133 -160
-151 -32 -10 -36 -13 -12 -9 17 3 32 3 32 0 0 -7 -70 -108 -84 -121 -6 -6 -12
-17 -14 -25 -2 -8 -27 -53 -55 -99 -62 -99 -148 -190 -237 -250 -61 -41 -68
-43 -120 -38 -85 8 -159 41 -280 127 -147 103 -186 162 -232 345 -18 73 -22
119 -22 240 0 139 3 163 41 335 66 299 68 315 68 565 0 249 -14 372 -61 560
-14 55 -30 118 -34 140 -10 46 -3 95 13 95 6 0 31 -22 56 -48z m978 -3428 c4
-11 -5 -24 -26 -41 l-31 -25 27 -33 c16 -18 36 -45 46 -59 23 -33 67 -35 86
-4 12 20 14 20 23 4 17 -31 -17 -56 -77 -56 -47 0 -54 3 -59 23 -6 24 -66 88
-66 70 0 -5 9 -18 20 -28 10 -9 24 -33 30 -51 11 -33 14 -34 61 -34 27 0 49
-4 49 -10 0 -6 -28 -10 -65 -10 -36 0 -68 -1 -72 -2 -5 -1 -15 12 -23 28 -32
62 -53 95 -58 90 -2 -3 1 -12 7 -20 19 -23 41 -105 31 -111 -6 -3 -21 5 -35
19 -19 19 -23 31 -19 55 3 16 1 46 -6 67 -12 34 -11 39 5 49 10 5 40 29 67 53
52 45 75 52 85 26z m-285 -184 c48 -14 98 -90 59 -90 -5 0 -14 13 -21 29 -7
19 -28 38 -53 50 -46 23 -41 26 15 11z m109 -30 c5 0 9 -9 9 -20 0 -28 -14
-25 -35 7 -16 24 -16 26 0 20 9 -4 21 -7 26 -7z"/>
<path d="M1713 4095 c0 -38 2 -53 4 -32 2 20 2 52 0 70 -2 17 -4 1 -4 -38z"/>
<path d="M2460 3140 c-8 -5 -10 -10 -5 -10 6 0 17 5 25 10 8 5 11 10 5 10 -5
0 -17 -5 -25 -10z"/>
<path d="M3579 3703 c-13 -16 -12 -17 4 -4 9 7 17 15 17 17 0 8 -8 3 -21 -13z"/>
<path d="M4006 3665 c14 -21 14 -26 0 -53 -8 -16 -43 -55 -78 -86 l-63 -58 69
53 c70 54 99 99 89 137 -3 11 -11 23 -19 26 -11 4 -11 1 2 -19z"/>
<path d="M3958 3377 c-9 -51 -44 -95 -112 -142 -58 -40 -69 -58 -19 -31 41 22
109 88 128 125 9 18 15 44 13 59 -3 23 -4 22 -10 -11z"/>
<path d="M3901 3176 c-9 -16 -44 -40 -95 -66 -45 -22 -73 -40 -62 -40 25 0
129 57 156 85 12 13 20 29 18 35 -2 7 -10 0 -17 -14z"/>
<path d="M3868 3073 c7 -3 16 -2 19 1 4 3 -2 6 -13 5 -11 0 -14 -3 -6 -6z"/>
<path d="M3758 3053 c7 -3 16 -2 19 1 4 3 -2 6 -13 5 -11 0 -14 -3 -6 -6z"/>
<path d="M3785 2993 c-12 -14 -53 -36 -100 -53 -53 -19 -71 -29 -53 -29 33 -1
164 64 172 86 10 24 3 23 -19 -4z"/>
<path d="M3743 2923 c9 -2 25 -2 35 0 9 3 1 5 -18 5 -19 0 -27 -2 -17 -5z"/>
<path d="M919 2680 c-15 -9 -18 -54 -7 -105 5 -23 39 -31 65 -16 14 8 9 9 -22
6 -35 -4 -37 -4 -9 4 44 11 54 19 54 44 0 32 -11 44 -45 53 -26 6 -27 8 -10
15 13 5 15 8 5 8 -8 0 -22 -4 -31 -9z m21 -44 c0 -3 -4 -8 -10 -11 -5 -3 -10
-1 -10 4 0 6 5 11 10 11 6 0 10 -2 10 -4z"/>
<path d="M2541 2551 c-43 -67 -104 -206 -99 -223 2 -6 14 16 26 49 12 32 44
97 72 143 58 97 60 121 1 31z"/>
<path d="M725 2496 c-11 -8 -14 -15 -7 -20 12 -7 42 3 42 14 0 16 -17 19 -35
6z"/>
<path d="M3608 2434 c-8 -8 -51 -21 -94 -29 -43 -7 -65 -13 -47 -14 67 -2 181
35 162 53 -3 3 -12 -1 -21 -10z"/>
<path d="M2350 2306 c-15 -39 -12 -46 6 -13 9 16 13 31 10 34 -3 3 -10 -6 -16
-21z"/>
<path d="M2326 2245 c-3 -9 -6 -22 -5 -28 0 -7 5 -1 10 12 5 13 8 26 5 28 -2
2 -6 -3 -10 -12z"/>
<path d="M3456 2195 c-11 -8 -40 -15 -65 -15 -29 0 -41 -3 -33 -9 19 -11 91 3
110 23 20 20 14 20 -12 1z"/>
<path d="M3450 2116 c0 -2 8 -10 18 -17 15 -13 16 -12 3 4 -13 16 -21 21 -21
13z"/>
</g>
</svg>
